<?xml version="1.0" standalone="no"?>
<!DOCTYPE svg PUBLIC "-//W3C//DTD SVG 20010904//EN"
 "http://www.w3.org/TR/2001/REC-SVG-20010904/DTD/svg10.dtd">
<svg version="1.0" xmlns="http://www.w3.org/2000/svg"
 width="500.000000pt" height="500.000000pt" viewBox="0 0 500.000000 500.000000"
 preserveAspectRatio="xMidYMid meet">
<metadata>
Created by potrace 1.14, written by Peter Selinger 2001-2017
</metadata>
<g transform="translate(0.000000,500.000000) scale(0.100000,-0.100000)"
fill="#000000" stroke="none">
<path d="M2385 4024 c-255 -30 -500 -121 -719 -270 -122 -82 -131 -91 -115
-112 23 -29 104 -127 110 -132 3 -3 49 -58 102 -122 l98 -116 77 53 c150 103
314 167 497 194 62 9 270 7 315 -3 14 -3 39 -8 55 -12 61 -11 192 -58 255 -90
229 -116 415 -306 524 -537 43 -91 56 -140 35 -133 -13 5 -75 8 -409 21 -80 3
-155 8 -168 11 -20 4 -22 2 -13 -13 5 -10 27 -36 48 -58 21 -23 83 -90 137
-150 55 -61 109 -119 120 -130 12 -11 36 -38 55 -60 19 -22 75 -85 126 -140
51 -55 103 -112 116 -126 21 -23 109 -120 206 -226 17 -20 36 -34 41 -32 6 2
37 29 69 59 64 59 305 280 432 395 24 22 54 49 65 60 12 11 75 69 141 129 66
60 144 131 173 158 29 26 47 49 40 49 -18 2 -103 7 -253 13 -71 4 -170 8 -220
11 -49 2 -104 4 -122 5 -33 0 -38 8 -49 67 -3 16 -20 73 -39 128 -186 556
-653 974 -1215 1089 -158 32 -348 39 -515 20z"/>
<path d="M1163 3073 c-44 -43 -191 -184 -325 -314 -133 -130 -301 -293 -373
-363 -113 -109 -127 -126 -105 -127 39 -2 238 -7 433 -10 203 -3 180 9 212
-104 90 -315 314 -637 585 -841 239 -180 538 -295 830 -320 69 -6 241 -6 280
0 19 3 58 8 85 11 90 11 118 17 205 42 171 49 321 118 463 210 78 52 177 131
177 142 0 4 -19 27 -42 52 -24 24 -58 62 -77 84 -19 22 -65 75 -104 117 -38
42 -76 86 -84 98 -8 11 -18 20 -23 20 -5 0 -40 -24 -79 -53 -76 -57 -199 -123
-296 -157 -59 -22 -72 -25 -129 -36 -16 -2 -32 -7 -36 -9 -4 -2 -35 -7 -71
-11 -416 -48 -819 142 -1055 498 -37 56 -124 224 -124 241 0 4 446 0 573 -6
26 -1 47 -1 47 -1 0 3 -87 93 -326 340 -122 126 -254 263 -294 304 -127 132
-261 270 -263 270 -1 0 -39 -35 -84 -77z"/>
</g>
</svg>
